<svg width="14" height="14" viewBox="0 0 14 14" fill="none" xmlns="http://www.w3.org/2000/svg">
<path d="M3.37929 1.6897C3.37929 1.6897 1.68964 1.93108 1.68964 3.37935C1.68964 4.82763 2.89653 6.75866 3.86205 7.96556C4.40515 8.64625 7.08446 11.4269 9.39688 12.1535C10.0196 12.349 10.7052 12.3104 11.2603 11.9652C11.6224 11.7407 11.982 11.369 12.18 10.7583C12.2934 10.4083 12.1969 10.0221 11.9289 9.77108C11.3279 9.21108 10.1765 8.20694 9.65515 8.20694C8.93101 8.20694 8.68964 9.41383 7.9655 9.41383C7.48274 9.41383 5.27412 8.5859 4.68515 6.35314C4.60308 6.03935 4.72136 5.70625 4.97722 5.5059C5.38757 5.18246 5.95239 4.66108 5.79308 4.34487C5.5517 3.86211 4.58619 1.6897 3.37929 1.6897Z" fill="white"/>
<path d="M7.14001 1.30839C7.56967 1.23839 8.96967 1.07184 10.3045 1.90943C11.7552 2.82184 12.559 4.5646 12.4142 6.41598" stroke="white" stroke-miterlimit="10" stroke-linecap="round"/>
<path d="M7.42242 2.67212C7.71449 2.62626 8.6607 2.5104 9.56346 3.08005C10.5459 3.69799 11.089 4.87833 10.99 6.13109" stroke="white" stroke-miterlimit="10" stroke-linecap="round"/>
<path d="M7.9848 3.8765C8.10791 3.85719 8.51101 3.80891 8.89239 4.04788C9.30997 4.30857 9.53928 4.81064 9.49825 5.34167" stroke="white" stroke-miterlimit="10" stroke-linecap="round"/>
</svg>
