<svg width="157" height="27" viewBox="0 0 157 27" fill="none" xmlns="http://www.w3.org/2000/svg">
<g clip-path="url(#clip0_237_74)">
<path fill-rule="evenodd" clip-rule="evenodd" d="M41.7971 22.1313L41.7357 7.72031H44.7329L44.5918 15.6297L46.3246 7.72031H48.6426L48.7837 15.5593L50.3284 7.72031H53.301L50.1442 22.1313H46.9956L46.8177 13.9062L44.9702 22.1313H41.7971ZM56.6624 22.3223C57.7815 22.3223 58.6939 22.0609 59.3916 21.534C60.0912 21.0051 60.4943 20.2369 60.5986 19.2294L60.7316 18.057H57.7937L57.671 19.2636C57.6076 19.8206 57.3477 20.0982 56.8915 20.0982C56.5498 20.0982 56.378 19.8629 56.378 19.3943C56.378 19.3199 56.3841 19.2334 56.3964 19.1429L56.601 17.2063H60.8094L61.0753 14.8413C61.0937 14.6784 61.1019 14.5236 61.1019 14.3728C61.1019 13.5603 60.8605 12.9248 60.3777 12.4683C59.7987 11.9254 58.9415 11.6519 57.8019 11.6519C56.6706 11.6519 55.7274 11.9435 54.9766 12.5307C54.2257 13.1159 53.7961 13.9223 53.6897 14.954L53.256 19.0223C53.2376 19.1791 53.2315 19.3299 53.2315 19.4727C53.2315 20.2912 53.4933 20.9508 54.0253 21.4496C54.6513 22.0307 55.531 22.3223 56.6624 22.3223ZM56.7585 15.7664L56.867 14.8192C56.9365 14.1878 57.1657 13.872 57.5544 13.872C57.9615 13.872 58.164 14.0953 58.164 14.5397C58.164 14.6 58.162 14.6583 58.1559 14.7227L58.0413 15.7644H56.7585V15.7664ZM66.1982 22.1313L67.7367 7.72031H71.6811C72.2396 7.72031 72.7286 7.74042 73.148 7.78868C73.5674 7.83695 73.9929 7.93348 74.4307 8.08832C74.8645 8.24317 75.2123 8.45634 75.4721 8.72582C75.7258 8.99328 75.9181 9.36331 76.049 9.83791C76.1247 10.1295 76.1677 10.4493 76.1718 10.8052C76.1718 11.0365 76.1534 11.2798 76.1165 11.5352C75.9017 13.1682 75.0834 14.1234 73.6717 14.3969C74.4901 14.4713 75.0936 14.8031 75.4823 15.3944C75.7892 15.867 75.9447 16.4723 75.9447 17.2123C75.9447 17.4014 75.9365 17.6045 75.9181 17.8116C75.6521 20.6934 73.9684 22.1313 70.8689 22.1313H66.1982ZM69.9912 19.714H70.5129C71.1676 19.714 71.6443 19.5532 71.9491 19.2334C72.2519 18.9137 72.4401 18.421 72.5199 17.7593C72.5445 17.5522 72.5567 17.3591 72.5567 17.1781C72.5506 16.6915 72.4626 16.3375 72.301 16.1183C72.0739 15.8107 71.6279 15.6558 70.9548 15.6558H70.4229L69.9912 19.714ZM70.6643 13.4296H71.1676C71.8202 13.4296 72.2785 13.2808 72.5383 12.9852C72.7981 12.6855 72.9618 12.231 73.0334 11.6237C73.0396 11.5493 73.0416 11.4749 73.0416 11.4065C73.0416 11.0305 72.9352 10.7127 72.7224 10.4573C72.4749 10.1577 72.1046 10.0068 71.6095 10.0068H71.0264L70.6643 13.4296ZM78.8969 22.3223C78.2668 22.3223 77.7942 22.0971 77.4811 21.6466C77.2336 21.2867 77.1088 20.8342 77.1088 20.2912C77.1088 20.1464 77.117 19.9936 77.1354 19.8407L77.9844 11.8409H81.178L80.3576 19.5793C80.3515 19.6296 80.3494 19.6799 80.3494 19.7241C80.3494 20.068 80.4967 20.2369 80.7995 20.2369C80.8118 20.2369 80.8261 20.2369 80.8445 20.2369C81.0737 20.2248 81.3274 20.1444 81.6056 19.9936L82.471 11.8409H85.6626L84.566 22.1333H81.3724L81.4726 21.2022C80.5806 21.9483 79.7234 22.3223 78.8969 22.3223ZM86.3766 22.1313L87.4752 11.8389H90.6668L89.5702 22.1313H86.3766ZM87.6491 10.0591L87.8701 8.01392H91.0821L90.8611 10.0591H87.6491ZM91.4626 22.1313L92.9991 7.72031H96.2008L94.6623 22.1313H91.4626ZM98.7316 22.3223C97.9828 22.3223 97.4243 22.0669 97.0601 21.5602C96.7757 21.166 96.6346 20.6431 96.6346 19.9936C96.6346 19.8045 96.6468 19.5994 96.6714 19.3863L97.1849 14.606C97.279 13.7011 97.5675 12.9832 98.0503 12.4482C98.5331 11.9173 99.1469 11.6498 99.8895 11.6498C100.634 11.6498 101.313 11.9254 101.933 12.4744L102.437 7.72031H105.63L104.092 22.1313H100.898L100.988 21.3068C100.201 21.9825 99.4497 22.3223 98.7316 22.3223ZM100.401 20.3837C100.591 20.3837 100.827 20.3073 101.111 20.1484L101.798 13.7152C101.581 13.5985 101.373 13.5402 101.17 13.5402C100.953 13.5402 100.777 13.6206 100.649 13.7775C100.522 13.9324 100.438 14.1455 100.401 14.409L99.8548 19.5753C99.8486 19.6195 99.8466 19.6638 99.8466 19.706C99.8466 19.8729 99.8854 20.0197 99.9611 20.1484C100.053 20.3013 100.201 20.3777 100.401 20.3837ZM115.444 22.1313L115.383 7.72031H118.38L118.239 15.6297L119.972 7.72031H122.29L122.431 15.5593L123.976 7.72031H126.948L123.791 22.1313H120.645L120.467 13.9062L118.619 22.1313H115.444ZM130.567 20.253C130.796 20.253 130.974 20.1766 131.101 20.0177C131.228 19.8609 131.31 19.6115 131.347 19.2696L131.834 14.6965C131.846 14.592 131.852 14.4975 131.852 14.409C131.852 14.2139 131.819 14.0591 131.756 13.9484C131.662 13.7916 131.5 13.7132 131.269 13.7132C130.831 13.7132 130.578 14.0389 130.508 14.6945L130.021 19.2676C130.009 19.3601 130.003 19.4466 130.003 19.519C130.003 20.0097 130.189 20.253 130.567 20.253ZM130.338 22.3223C131.494 22.3223 132.452 22.0468 133.209 21.4878C133.966 20.9327 134.403 20.1163 134.522 19.0464L134.962 14.9258C134.98 14.771 134.988 14.6201 134.988 14.4753C134.988 14.1113 134.933 13.7775 134.829 13.4759C134.684 13.0576 134.452 12.7197 134.135 12.4543C133.822 12.1908 133.438 11.9917 132.992 11.855C132.546 11.7182 132.04 11.6498 131.48 11.6498C130.33 11.6498 129.383 11.9254 128.634 12.4844C127.885 13.0395 127.454 13.8559 127.343 14.9258L126.899 19.0464C126.885 19.2032 126.875 19.3541 126.875 19.5069C126.875 19.8729 126.924 20.2047 127.022 20.4983C127.163 20.9166 127.39 21.2585 127.703 21.5199C128.016 21.7834 128.395 21.9865 128.834 22.1233C129.274 22.254 129.776 22.3223 130.338 22.3223ZM135.827 22.1313L136.924 11.8389H140.117L139.931 13.6126C140.692 12.3477 141.437 11.7162 142.171 11.7162C142.313 11.7162 142.456 11.7424 142.603 11.7967L142.319 14.4472C142.262 14.4351 142.161 14.4291 142.02 14.4291C141.149 14.4894 140.375 14.9298 139.702 15.7604L139.023 22.1313H135.827ZM142.834 22.1313L144.371 7.72031H147.573L146.034 22.1313H142.834ZM150.103 22.3223C149.355 22.3223 148.796 22.0669 148.432 21.5602C148.147 21.166 148.006 20.6431 148.006 19.9936C148.006 19.8045 148.019 19.5994 148.043 19.3863L148.557 14.606C148.651 13.7011 148.939 12.9832 149.422 12.4482C149.905 11.9173 150.519 11.6498 151.259 11.6498C152.004 11.6498 152.683 11.9254 153.303 12.4744L153.806 7.72031H157L155.461 22.1313H152.268L152.358 21.3068C151.572 21.9825 150.821 22.3223 150.103 22.3223ZM151.773 20.3837C151.963 20.3837 152.198 20.3073 152.483 20.1484L153.17 13.7152C152.953 13.5985 152.745 13.5402 152.542 13.5402C152.325 13.5402 152.149 13.6206 152.02 13.7775C151.893 13.9324 151.81 14.1455 151.773 14.409L151.227 19.5753C151.22 19.6195 151.218 19.6638 151.218 19.706C151.218 19.8729 151.257 20.0197 151.333 20.1484C151.425 20.3013 151.572 20.3777 151.773 20.3837Z" fill="white"/>
<path fill-rule="evenodd" clip-rule="evenodd" d="M9.98994 5.14623C11.0333 5.50017 11.4486 5.78171 11.9397 6.12158C12.7887 6.7088 13.4045 7.34428 14.4499 8.32968C15.0146 8.86863 17.6108 11.7464 17.9381 12.3618L11.1847 12.2492C9.65442 12.2291 8.75015 12.1808 8.476 12.1788C8.4269 12.1788 8.44531 12.2069 8.44327 12.2874C8.43917 12.3899 8.45554 12.5428 8.45759 12.9329L17.3898 13.1059L10.6283 16.6754C11.5387 18.4713 10.5587 20.798 11.0865 22.3063C11.5182 23.5411 24.3335 27.1991 24.6261 26.992C25.0271 26.7064 25.0312 26.3826 25.0455 25.7592C25.0619 25.0875 25.0087 24.6532 25.0966 23.9553C30.6 23.9553 29.8246 24.1243 29.8246 17.0917C34.7981 17.0917 30.3627 15.497 29.841 10.1778C28.5767 -2.76715 13.1038 -2.1015 9.98994 5.14623Z" fill="#6DB744"/>
<path fill-rule="evenodd" clip-rule="evenodd" d="M8.45657 11.9415C8.63047 8.62128 8.55272 9.47597 8.70821 8.4423C8.77982 7.95564 9.14603 6.68266 9.95619 5.18646L3.74902 3.49921L8.45657 11.9415Z" fill="#6DB744"/>
<path fill-rule="evenodd" clip-rule="evenodd" d="M3.60681 20.6271L10.4523 16.7981L8.69693 13.3733C8.68057 13.3472 8.64579 13.2889 8.61305 13.2506L3.60681 20.6271Z" fill="#6DB744"/>
<path fill-rule="evenodd" clip-rule="evenodd" d="M-8.76083e-05 6.77715C0.00400413 6.77514 0.0265087 6.77916 0.746655 6.78318C1.4668 6.78921 2.88459 6.79525 3.63133 6.79927C4.37603 6.80329 4.44968 6.80128 4.48855 6.80329C4.52537 6.80329 4.52742 6.80731 4.52947 6.80932C4.53151 6.81133 4.53356 6.81536 5.02047 7.71831C5.50739 8.62125 6.47918 10.4231 6.98656 11.3603C7.49598 12.2974 7.54099 12.3678 7.56554 12.406C7.59009 12.4442 7.59418 12.4502 6.44849 11.6177C5.30076 10.7831 3.00734 9.10993 1.80028 8.22106C0.593214 7.33219 0.474554 7.22963 0.359985 7.12103C0.245417 7.01445 0.13494 6.90384 0.0735637 6.84351C0.0101417 6.7872 -0.00417935 6.77916 -8.76083e-05 6.77715Z" fill="#6DB742"/>
<path fill-rule="evenodd" clip-rule="evenodd" d="M21.7353 6.94409C21.7353 6.94409 21.7353 6.94409 21.5103 7.39054C21.2852 7.83498 20.8372 8.72385 20.5978 9.19443C20.3605 9.66501 20.3339 9.71528 20.3175 9.74545C20.3011 9.77561 20.293 9.78366 20.2909 9.78969C20.2868 9.79371 20.2889 9.79572 21.0438 9.78366C21.8008 9.77159 23.3106 9.74545 24.0881 9.73338C24.8634 9.72132 24.9044 9.72132 24.9248 9.72132C24.9453 9.72132 24.9473 9.72132 24.9473 9.72132C24.9473 9.72132 24.9473 9.7193 24.5443 9.3895C24.1412 9.05768 23.3372 8.39605 22.8605 7.98781C22.3859 7.57756 22.2386 7.4207 22.1117 7.29602C21.9849 7.17134 21.8785 7.07883 21.8192 7.02453C21.7599 6.97225 21.7476 6.95817 21.7435 6.95214C21.7353 6.9461 21.7353 6.94409 21.7353 6.94409Z" fill="white"/>
<path fill-rule="evenodd" clip-rule="evenodd" d="M20.9865 6.936L19.7467 9.42766L18.5049 11.9193L17.0196 10.1476L15.5343 8.37389L18.2594 7.65394L20.9865 6.936Z" fill="white"/>
<path fill-rule="evenodd" clip-rule="evenodd" d="M109.601 18.055V18.9499H109.364V16.8906H109.601V17.7875H111.958V18.057H109.601V18.055ZM109.364 14.3286H111.958V14.594H110.761V16.1888H111.958V16.4582H109.364V16.1888H110.52V14.594H109.364V14.3286ZM111.721 11.6961H111.958V13.498H109.364V11.7504H109.601V13.2285H110.524V11.9093H110.757V13.2285H111.721V11.6961Z" fill="#6DB742"/>
</g>
<defs>
<clipPath id="clip0_237_74">
<rect width="157" height="27" fill="white"/>
</clipPath>
</defs>
</svg>
