<svg width="126" height="22" viewBox="0 0 126 22" fill="none" xmlns="http://www.w3.org/2000/svg">
<g clip-path="url(#clip0_237_8)">
<path fill-rule="evenodd" clip-rule="evenodd" d="M33.5441 18.0329L33.4949 6.29062H35.9003L35.787 12.7353L37.1777 6.29062H39.038L39.1512 12.6779L40.3909 6.29062H42.7766L40.2431 18.0329H37.7162L37.5734 11.331L36.0907 18.0329H33.5441ZM45.4742 18.1886C46.3724 18.1886 47.1046 17.9756 47.6645 17.5462C48.2261 17.1153 48.5495 16.4893 48.6333 15.6684L48.74 14.7131H46.3822L46.2837 15.6962C46.2328 16.1501 46.0243 16.3763 45.6581 16.3763C45.3839 16.3763 45.246 16.1846 45.246 15.8028C45.246 15.7421 45.2509 15.6717 45.2608 15.5979L45.425 14.0199H48.8024L49.0158 12.0929C49.0306 11.9602 49.0372 11.834 49.0372 11.7111C49.0372 11.0491 48.8434 10.5313 48.4559 10.1594C47.9913 9.71696 47.3033 9.4941 46.3888 9.4941C45.4808 9.4941 44.7239 9.7317 44.1213 10.2102C43.5187 10.687 43.1739 11.3441 43.0885 12.1847L42.7405 15.4996C42.7257 15.6274 42.7208 15.7503 42.7208 15.8667C42.7208 16.5336 42.9309 17.071 43.3578 17.4774C43.8602 17.951 44.5663 18.1886 45.4742 18.1886ZM45.5514 12.8467L45.6384 12.0749C45.6942 11.5604 45.8781 11.3031 46.1901 11.3031C46.5168 11.3031 46.6794 11.485 46.6794 11.8472C46.6794 11.8963 46.6777 11.9438 46.6728 11.9963L46.5809 12.8451H45.5514V12.8467ZM53.1272 18.0329L54.3619 6.29062H57.5275C57.9757 6.29062 58.3681 6.30701 58.7047 6.34633C59.0413 6.38566 59.3828 6.46431 59.7342 6.59049C60.0823 6.71666 60.3614 6.89035 60.5699 7.10992C60.7735 7.32786 60.9279 7.62936 61.0329 8.01608C61.0937 8.25368 61.1282 8.51421 61.1315 8.80425C61.1315 8.99269 61.1167 9.19096 61.0871 9.39907C60.9147 10.7296 60.258 11.508 59.125 11.7308C59.7818 11.7914 60.2662 12.0618 60.5781 12.5436C60.8244 12.9286 60.9492 13.4219 60.9492 14.0249C60.9492 14.1789 60.9426 14.3444 60.9279 14.5132C60.7144 16.8613 59.3631 18.0329 56.8756 18.0329H53.1272ZM56.1713 16.0633H56.5899C57.1154 16.0633 57.4979 15.9322 57.7426 15.6717C57.9856 15.4111 58.1366 15.0097 58.2007 14.4706C58.2204 14.3018 58.2302 14.1445 58.2302 13.997C58.2253 13.6005 58.1547 13.3121 58.025 13.1335C57.8427 12.8828 57.4848 12.7566 56.9446 12.7566H56.5177L56.1713 16.0633ZM56.7114 10.9426H57.1154C57.6391 10.9426 58.0069 10.8214 58.2154 10.5805C58.424 10.3364 58.5553 9.96602 58.6128 9.47116C58.6177 9.41054 58.6193 9.34991 58.6193 9.29419C58.6193 8.98777 58.534 8.72887 58.3632 8.52077C58.1645 8.27662 57.8673 8.15372 57.47 8.15372H57.0021L56.7114 10.9426ZM63.3185 18.1886C62.8128 18.1886 62.4335 18.0051 62.1823 17.638C61.9836 17.3447 61.8835 16.976 61.8835 16.5336C61.8835 16.4156 61.89 16.2911 61.9048 16.1665L62.5862 9.64813H65.1492L64.4908 15.9535C64.4859 15.9945 64.4842 16.0354 64.4842 16.0715C64.4842 16.3517 64.6025 16.4893 64.8455 16.4893C64.8553 16.4893 64.8668 16.4893 64.8816 16.4893C65.0655 16.4795 65.2691 16.414 65.4924 16.2911L66.1869 9.64813H68.7483L67.8682 18.0345H65.3052L65.3856 17.2759C64.6698 17.8838 63.9818 18.1886 63.3185 18.1886ZM69.3213 18.0329L70.203 9.6465H72.7644L71.8843 18.0329H69.3213ZM70.3426 8.19632L70.5199 6.52986H73.0977L72.9204 8.19632H70.3426ZM73.4031 18.0329L74.6361 6.29062H77.2057L75.971 18.0329H73.4031ZM79.2368 18.1886C78.6358 18.1886 78.1876 17.9805 77.8953 17.5675C77.6671 17.2464 77.5538 16.8203 77.5538 16.2911C77.5538 16.137 77.5637 15.9699 77.5834 15.7962L77.9955 11.9012C78.071 11.1638 78.3025 10.5789 78.69 10.143C79.0775 9.7104 79.5701 9.49247 80.1661 9.49247C80.7637 9.49247 81.3089 9.71696 81.8064 10.1643L82.2103 6.29062H84.7733L83.5386 18.0329H80.9756L81.0478 17.3611C80.4157 17.9117 79.8131 18.1886 79.2368 18.1886ZM80.5766 16.609C80.7293 16.609 80.9181 16.5467 81.1463 16.4172L81.698 11.1753C81.5239 11.0803 81.3565 11.0328 81.1939 11.0328C81.0199 11.0328 80.8787 11.0983 80.7752 11.2261C80.6734 11.3523 80.6061 11.526 80.5766 11.7406L80.1382 15.9502C80.1333 15.9863 80.1316 16.0223 80.1316 16.0567C80.1316 16.1927 80.1628 16.3124 80.2236 16.4172C80.2974 16.5418 80.4157 16.604 80.5766 16.609ZM92.6495 18.0329L92.6003 6.29062H95.0056L94.8924 12.7353L96.2831 6.29062H98.1433L98.2566 12.6779L99.4963 6.29062H101.882L99.3485 18.0329H96.8232L96.6804 11.331L95.1978 18.0329H92.6495ZM104.786 16.5024C104.97 16.5024 105.113 16.4402 105.215 16.3107C105.317 16.1829 105.383 15.9797 105.412 15.7012L105.803 11.975C105.813 11.8898 105.818 11.8127 105.818 11.7406C105.818 11.5817 105.791 11.4555 105.74 11.3654C105.665 11.2376 105.535 11.1737 105.35 11.1737C104.998 11.1737 104.795 11.4391 104.739 11.9733L104.348 15.6995C104.338 15.7749 104.333 15.8454 104.333 15.9044C104.333 16.3042 104.483 16.5024 104.786 16.5024ZM104.603 18.1886C105.53 18.1886 106.299 17.9641 106.906 17.5086C107.514 17.0563 107.865 16.391 107.96 15.5193L108.313 12.1618C108.328 12.0356 108.335 11.9127 108.335 11.7947C108.335 11.4981 108.29 11.2261 108.207 10.9803C108.09 10.6395 107.904 10.3642 107.65 10.1479C107.399 9.93325 107.09 9.77103 106.732 9.6596C106.374 9.54818 105.969 9.49247 105.519 9.49247C104.596 9.49247 103.836 9.71696 103.235 10.1725C102.634 10.6247 102.288 11.29 102.199 12.1618L101.843 15.5193C101.831 15.6471 101.823 15.77 101.823 15.8945C101.823 16.1927 101.862 16.4631 101.941 16.7024C102.054 17.0432 102.237 17.3218 102.488 17.5348C102.739 17.7494 103.043 17.9149 103.396 18.0264C103.749 18.1329 104.151 18.1886 104.603 18.1886ZM109.008 18.0329L109.888 9.6465H112.451L112.301 11.0918C112.912 10.0611 113.51 9.54654 114.099 9.54654C114.213 9.54654 114.328 9.56784 114.446 9.61208L114.218 11.7718C114.172 11.7619 114.091 11.757 113.978 11.757C113.278 11.8062 112.658 12.165 112.118 12.8418L111.573 18.0329H109.008ZM114.631 18.0329L115.864 6.29062H118.434L117.199 18.0329H114.631ZM120.465 18.1886C119.864 18.1886 119.416 17.9805 119.124 17.5675C118.895 17.2464 118.782 16.8203 118.782 16.2911C118.782 16.137 118.792 15.9699 118.812 15.7962L119.224 11.9012C119.299 11.1638 119.531 10.5789 119.918 10.143C120.306 9.7104 120.798 9.49247 121.393 9.49247C121.99 9.49247 122.536 9.71696 123.033 10.1643L123.437 6.29062H126L124.765 18.0329H122.202L122.274 17.3611C121.644 17.9117 121.041 18.1886 120.465 18.1886ZM121.805 16.609C121.958 16.609 122.146 16.5467 122.375 16.4172L122.926 11.1753C122.752 11.0803 122.585 11.0328 122.422 11.0328C122.248 11.0328 122.107 11.0983 122.004 11.2261C121.902 11.3523 121.834 11.526 121.805 11.7406L121.366 15.9502C121.362 15.9863 121.36 16.0223 121.36 16.0567C121.36 16.1927 121.391 16.3124 121.452 16.4172C121.526 16.5418 121.644 16.604 121.805 16.609Z" fill="black"/>
<path fill-rule="evenodd" clip-rule="evenodd" d="M8.01733 4.19319C8.85471 4.48158 9.18801 4.71099 9.58207 4.98791C10.2635 5.46639 10.7577 5.98419 11.5967 6.78711C12.0499 7.22626 14.1334 9.57111 14.3961 10.0725L8.97621 9.98076C7.74806 9.96438 7.02234 9.92505 6.80232 9.92341C6.76292 9.92341 6.77769 9.94635 6.77605 10.0119C6.77277 10.0955 6.7859 10.22 6.78755 10.5379L13.9561 10.6788L8.52961 13.5873C9.26026 15.0506 8.47378 16.9465 8.8974 18.1755C9.24384 19.1816 19.5287 22.1622 19.7635 21.9934C20.0854 21.7607 20.0886 21.4969 20.1001 20.989C20.1133 20.4417 20.0706 20.0877 20.1412 19.5191C24.5579 19.5191 23.9356 19.6568 23.9356 13.9265C27.9271 13.9265 24.3674 12.6271 23.9488 8.29299C22.9341 -2.25475 10.5163 -1.71237 8.01733 4.19319Z" fill="#6DB744"/>
<path fill-rule="evenodd" clip-rule="evenodd" d="M6.78682 9.73006C6.92638 7.02471 6.86399 7.72112 6.98877 6.87887C7.04624 6.48233 7.34014 5.44509 7.99034 4.22596L3.00879 2.85117L6.78682 9.73006Z" fill="#6DB744"/>
<path fill-rule="evenodd" clip-rule="evenodd" d="M2.89465 16.8072L8.38848 13.6873L6.97972 10.8967C6.96659 10.8754 6.93867 10.8279 6.9124 10.7968L2.89465 16.8072Z" fill="#6DB744"/>
<path fill-rule="evenodd" clip-rule="evenodd" d="M2.92125e-05 5.5221C0.00331303 5.52046 0.0213741 5.52374 0.599326 5.52702C1.17728 5.53193 2.31512 5.53685 2.91442 5.54013C3.51207 5.54341 3.57118 5.54177 3.60238 5.54341C3.63193 5.54341 3.63357 5.54668 3.63521 5.54832C3.63685 5.54996 3.6385 5.55324 4.02927 6.28897C4.42005 7.02471 5.19995 8.49291 5.60714 9.2565C6.01598 10.0201 6.0521 10.0774 6.0718 10.1086C6.09151 10.1397 6.09479 10.1446 5.17532 9.46624C4.25421 8.78622 2.41363 7.42289 1.44491 6.69863C0.476183 5.97436 0.380952 5.89079 0.289005 5.80231C0.197058 5.71546 0.108395 5.62534 0.0591379 5.57618C0.00823875 5.5303 -0.0032546 5.52374 2.92125e-05 5.5221Z" fill="#6DB742"/>
<path fill-rule="evenodd" clip-rule="evenodd" d="M17.4437 5.65814C17.4437 5.65814 17.4437 5.65814 17.263 6.02191C17.0824 6.38405 16.7229 7.10831 16.5308 7.49175C16.3403 7.87518 16.319 7.91615 16.3058 7.94073C16.2927 7.96531 16.2861 7.97186 16.2845 7.97678C16.2812 7.98006 16.2828 7.98169 16.8887 7.97186C17.4962 7.96203 18.7079 7.94073 19.3319 7.9309C19.9541 7.92107 19.987 7.92107 20.0034 7.92107C20.0198 7.92107 20.0215 7.92107 20.0215 7.92107C20.0215 7.92107 20.0215 7.91943 19.698 7.65069C19.3745 7.38032 18.7293 6.84122 18.3467 6.50858C17.9658 6.17431 17.8476 6.04649 17.7458 5.9449C17.644 5.84331 17.5586 5.76793 17.511 5.72369C17.4634 5.68108 17.4535 5.66961 17.4502 5.6647C17.4437 5.65978 17.4437 5.65814 17.4437 5.65814Z" fill="white"/>
<path fill-rule="evenodd" clip-rule="evenodd" d="M16.8427 5.65155L15.8477 7.68179L14.8511 9.71203L13.6591 8.26841L12.467 6.82316L14.6541 6.23653L16.8427 5.65155Z" fill="white"/>
<path fill-rule="evenodd" clip-rule="evenodd" d="M87.9602 14.7115V15.4407H87.7698V13.7627H87.9602V14.4935H89.8517V14.7131H87.9602V14.7115ZM87.7698 11.6751H89.8517V11.8914H88.8912V13.1908H89.8517V13.4104H87.7698V13.1908H88.6975V11.8914H87.7698V11.6751ZM89.6613 9.53018H89.8517V10.9984H87.7698V9.57442H87.9602V10.7788H88.7007V9.70388H88.8879V10.7788H89.6613V9.53018Z" fill="#6DB742"/>
</g>
<defs>
<clipPath id="clip0_237_8">
<rect width="126" height="22" fill="white"/>
</clipPath>
</defs>
</svg>
