<svg width="17" height="17" viewBox="0 0 17 17" fill="none" xmlns="http://www.w3.org/2000/svg">
<path d="M16.6926 4.33225C14.4691 2.22568 11.56 1.06543 8.5 1.06543C5.44 1.06543 2.53087 2.22568 0.300322 4.33936C0.10625 4.53343 0 4.79338 0 5.07105C0 5.35155 0.111928 5.61861 0.300322 5.79638L1.98402 7.47938C2.37147 7.86682 3.07414 7.8555 3.43184 7.49568C3.95884 7.00836 4.53897 6.60461 5.15166 6.29861C5.53134 6.11586 5.66661 5.66678 5.66661 5.30836V3.44829C6.57043 3.20534 7.59681 3.18336 8.49993 3.18336C9.45688 3.18336 10.4578 3.2053 11.3333 3.44616V5.30836C11.3333 5.77868 11.5231 6.15129 11.8376 6.30429C12.4786 6.62446 13.0602 7.02748 13.5645 7.49996C13.7572 7.68202 14.0193 7.78684 14.2835 7.78684C14.5618 7.78684 14.8218 7.67989 15.0159 7.48652L16.6996 5.80282C16.893 5.61014 16.9999 5.3495 16.9999 5.07112C17 4.79338 16.8937 4.53343 16.6926 4.33225Z" fill="#FF4975"/>
<path d="M8.5 5.30859C6.15612 5.30859 4.25 7.21472 4.25 9.55859C4.25 11.9025 6.15612 13.8086 8.5 13.8086C8.53188 13.8086 8.56375 13.8065 8.6275 13.8015C8.76068 13.798 8.88037 13.7201 8.93775 13.5996C8.99512 13.4792 8.97955 13.3368 8.89807 13.2306C8.63032 12.8835 8.5 12.4932 8.5 12.0377C8.5 11.6602 8.7033 11.3082 9.02982 11.1183C9.35139 10.9313 9.76789 10.9306 10.0909 11.1155C10.3941 11.2897 10.5988 11.3096 10.727 11.3096C10.9416 11.3096 11.1562 11.2437 11.4119 11.1651C11.6733 11.085 11.9538 11.0043 12.2662 10.9844C12.4156 10.9745 12.5431 10.8725 12.5842 10.7287C12.694 10.342 12.75 9.94886 12.75 9.55856C12.75 7.21542 10.8439 5.30859 8.5 5.30859ZM8.5 10.9752C7.7187 10.9752 7.08332 10.3399 7.08332 9.55856C7.08332 8.77726 7.7187 8.14188 8.5 8.14188C9.2813 8.14188 9.91668 8.77726 9.91668 9.55856C9.91668 10.3399 9.2813 10.9752 8.5 10.9752Z" fill="#FF4975"/>
<path d="M8.49934 10.2667C8.89054 10.2667 9.20766 9.94962 9.20766 9.55842C9.20766 9.16722 8.89054 8.8501 8.49934 8.8501C8.10814 8.8501 7.79102 9.16722 7.79102 9.55842C7.79102 9.94962 8.10814 10.2667 8.49934 10.2667Z" fill="#FF4975"/>
<path d="M8.49934 10.2667C8.89054 10.2667 9.20766 9.94962 9.20766 9.55842C9.20766 9.16722 8.89054 8.8501 8.49934 8.8501C8.10814 8.8501 7.79102 9.16722 7.79102 9.55842C7.79102 9.94962 8.10814 10.2667 8.49934 10.2667Z" fill="#FF4975"/>
<path d="M12.3965 11.6836C12.1344 11.6836 11.8851 11.7608 11.6209 11.8423C11.0563 12.0165 10.4103 12.115 9.73881 11.7311C9.629 11.668 9.49443 11.668 9.38536 11.7318C9.27629 11.7948 9.20898 11.9117 9.20898 12.0378C9.20898 13.7101 12.065 13.8036 12.3908 13.8086C12.3922 13.8086 12.3944 13.8086 12.3965 13.8086C12.4893 13.8086 12.5785 13.7718 12.6451 13.7066C12.7124 13.6407 12.7507 13.5493 12.7507 13.4544V12.0377C12.7507 11.8422 12.592 11.6836 12.3965 11.6836Z" fill="#FF4975"/>
<path d="M15.173 12.1119L14.1651 10.5073C14.158 10.4132 14.1368 10.3168 14.0999 10.208C14.051 10.0647 13.8725 9.97623 13.687 10.0061C13.5042 10.036 13.3817 10.1736 13.4072 10.3207C13.4433 10.5265 13.4596 10.6979 13.4596 10.8597C13.4596 11.2741 13.3753 11.6879 13.2103 12.091C13.1748 12.1761 13.1933 12.2698 13.2584 12.3425C13.3902 12.4885 13.4596 12.6582 13.4596 12.833V13.9606C13.4596 14.1855 13.3442 14.4054 13.143 14.5632C12.9425 14.72 12.6783 14.8062 12.3808 14.8062C11.6895 14.7978 11.0159 14.7127 10.4322 14.5604C10.3571 14.5407 10.2756 14.5418 10.1999 14.5633C9.64594 14.7245 9.07504 14.8063 8.50129 14.8063C5.76711 14.8063 3.54297 13.036 3.54297 10.8598C3.54297 10.6979 3.55927 10.5266 3.5954 10.3202C3.6209 10.1731 3.49834 10.0355 3.31559 10.0056C3.13567 9.97631 2.95222 10.0643 2.90265 10.2074C2.86582 10.3157 2.84384 10.4127 2.83747 10.5068L1.82952 12.1114C1.56034 12.5404 1.41797 13.0196 1.41797 13.4988V15.6525C1.41797 15.8081 1.57665 15.9344 1.77215 15.9344H15.2305C15.426 15.9344 15.5846 15.8081 15.5846 15.6525V13.4988C15.5845 13.0196 15.4422 12.5403 15.173 12.1119Z" fill="#FF4975"/>
</svg>
